<svg xmlns="http://www.w3.org/2000/svg" xmlns:xlink="http://www.w3.org/1999/xlink" width="1248" height="984" viewBox="0 0 624 492">
  <title>Banish — chamfered theme mount</title>
  <desc>Full original desktop, exact ANSI colors 0 through 7, and 4 GitHub stars from the dated snapshot. Static linked image.</desc>
  <defs>
    <filter id="float" x="-15%" y="-15%" width="130%" height="140%" color-interpolation-filters="sRGB"><feGaussianBlur stdDeviation="8" /><feOffset dy="10" /></filter>
  </defs>
  <path d="M24 16H600V450L578 472H24Z" fill="#000000" opacity="0.48" filter="url(#float)" />
  <path d="M24 16H600V450L578 472H24Z" fill="#191c1e" stroke="#353a3d" stroke-width="1.5" />
  <image x="32" y="24" width="560" height="315" xlink:href="collection/sources/banish.png" />
  <text x="44" y="382" fill="#e8e3d9" font-family="IBM Plex Sans" font-size="38" font-weight="500">Banish</text>
  <g id="ansi-palette"><title>ANSI color00–07, left to right</title><rect x="44" y="420" width="22" height="30" fill="#0c0b0d" /><rect x="66" y="420" width="22" height="30" fill="#ff4a78" /><rect x="88" y="420" width="22" height="30" fill="#f2f2ea" /><rect x="110" y="420" width="22" height="30" fill="#8F57FF" /><rect x="132" y="420" width="22" height="30" fill="#6C70E0" /><rect x="154" y="420" width="22" height="30" fill="#bd5cff" /><rect x="176" y="420" width="22" height="30" fill="#53b1ca" /><rect x="198" y="420" width="22" height="30" fill="#D8D1CC" /><rect x="44" y="420" width="176" height="30" fill="none" stroke="#353a3d" stroke-width="1" /></g>
  <image x="413.93548387096774" y="400" width="196.25806451612902" height="90.58064516129032" xlink:href="collection/assets/badge-banish-dark.png" />
  <g id="new-badge"><title>New theme</title>
    <defs><filter id="new-float" x="-30%" y="-70%" width="160%" height="260%" color-interpolation-filters="sRGB"><feGaussianBlur stdDeviation="1.2" /><feOffset dy="1.5" /></filter><clipPath id="new-caption"><rect x="24" y="339" width="576" height="81" /></clipPath></defs>
    <rect x="520" y="374" width="60" height="24" fill="#000000" opacity="0.55" filter="url(#new-float)" clip-path="url(#new-caption)" />
    <rect x="520" y="374" width="60" height="24" fill="#df6124" />
    <text x="550" y="392" text-anchor="middle" fill="#000000" font-family="IBM Plex Sans" font-size="18" font-weight="500" letter-spacing="1">NEW</text>
  </g>
</svg>